<svg xmlns="http://www.w3.org/2000/svg" id="jec-logo" data-name="jec-logo" viewBox="0 0 1399.33 535.33">
   <defs>
      <style>.cls-1{font-size:478.1px;}.cls-1,.cls-4{fill:#fff;}.cls-1{font-family:TrebuchetMS, Trebuchet MS;}.cls-2{font-size:61px;}.cls-2,.cls-3{fill:#fff;}.cls-3,.cls-4{fill-rule:evenodd;}.cls-5{fill:none;stroke:#fff;stroke-width:8px;}</style>
   </defs>
   <title>jec-logo</title>
   <text class="cls-1" transform="translate(496.36 439.97) scale(1.17 1)">JEC</text>
   <path class="cls-3" d="M310,103.66a20.08,20.08,0,0,1,0,28.3L135.66,306.42a20.09,20.09,0,0,1-28.3,0l-47.19-47a20,20,0,0,1,0-28.27L234.62,56.52a20,20,0,0,1,28.27,0Zm-21.36,287a20,20,0,0,1,0,28.27l-20.22,20.18a20.08,20.08,0,0,1-28.3,0l-84.65-84.65a20,20,0,0,1,0-28.27L175.67,306a20.08,20.08,0,0,1,28.3,0Z" transform="translate(-11.85 27.44)" />
   <path class="cls-4" d="M328,151.72a20.06,20.06,0,0,1,28.29,0L441,236.38a20,20,0,0,1,0,28.27L334.6,371a20.1,20.1,0,0,1-28.31,0l-84.71-84.51a20,20,0,0,1,0-28.27Z" transform="translate(-11.85 27.44)" />
   <path class="cls-5" d="M264.94,474.28a20.06,20.06,0,0,1-28.28,0l-215-215a20.06,20.06,0,0,1,0-28.28L232.17,20.53a20.06,20.06,0,0,1,28.28,0l215,215a20.06,20.06,0,0,1,0,28.28Z" transform="translate(-11.85 27.44)" />
</svg>