<svg xmlns="http://www.w3.org/2000/svg" id="jec-avatar-blue" data-name="jec-avatar-blue" viewBox="0 0 503.75 503.75">
   <defs>
      <style>.cls-1,.cls-2{fill:#3399ff;fill-rule:evenodd;}.cls-3{fill:none;stroke:#3399ff;stroke-width:8px;}</style>
   </defs>
   <title>jec-avatar-blue</title>
   <path class="cls-1" d="M322.45,104.23a20.08,20.08,0,0,1,0,28.3L135.39,319.75a20.09,20.09,0,0,1-28.3,0L55.14,268a20,20,0,0,1,0-28.27L242.36,52.34a20,20,0,0,1,28.27,0Zm-22.7,305.09a20,20,0,0,1,0,28.27l-23.27,23.23a20.08,20.08,0,0,1-28.3,0L156.4,369a20,20,0,0,1,0-28.27l23.27-23.23a20.08,20.08,0,0,1,28.3,0Z" transform="translate(-4.4 -4.25)" />
   <path class="cls-2" d="M341.64,153.53a20.06,20.06,0,0,1,28.29,0l91.84,91.77a20,20,0,0,1,0,28.27L346.85,388.41a20.1,20.1,0,0,1-28.31,0l-91.82-91.61a20,20,0,0,1,0-28.27Z" transform="translate(-4.4 -4.25)" />
   <path class="cls-3" d="M272.8,498.17a20.06,20.06,0,0,1-28.28,0L14.23,267.89a20.06,20.06,0,0,1,0-28.28L239.75,14.08a20.06,20.06,0,0,1,28.28,0L498.32,244.36a20.06,20.06,0,0,1,0,28.28Z" transform="translate(-4.4 -4.25)" />
</svg>